<svg xmlns="http://www.w3.org/2000/svg" xml:space="preserve" width="512" height="512"><path d="M255.998 480h.008-.008H479.985s-.211-6.109-3.473-15.819c-4.44-13.198-9.94-26.537-15.049-32.802-2.633-3.23-7.336-7.328-11.586-11.96-4.245-4.629-16.787-7.328-23.744-10.8-6.94-3.473-21.646-9.473-27.057-12.565-5.409-3.082-17.014-5.992-21.252-8.695-4.245-2.702-15.283-7.929-24.162-12.562-8.878-4.636-19.705-15.264-19.705-15.264s-1.547-1.926-1.547-5.02c0-3.09-2.703-6.179-3.469-8.874-.77-2.707-2.703-6.566-2.703-6.566s-2.71-3.089-4.249-8.104c-1.547-5.02-6.176-8.878-6.176-8.878s-.387-6.566-.387-13.507c0-6.953 2.789-16.022 2.789-16.022s10.718-10.343 13.413-19.221c2.695-8.875 7.007-24.26 7.007-24.26s8.758-2.714 9.258-7.726c.418-4.132 3.741-14.952 4.507-18.045 1.164-4.628 2.238-9.913 3.539-15.459 1.555-6.558 7.491-15.116 6.184-20.069-.918-3.437-7.215-7.582-7.215-7.582s.754-7.519 2.008-14.038c1.387-7.214 5.406-26.884 5.016-38.844-.375-11.585.094-26.99-11.031-47.618-4.476-8.292-22.561-25.494-30.271-30.509-7.094-4.609-16.694-9.19-30.186-13.077 0 0-22.506-4.113-34.454-4.113-11.956 0-34.462 4.113-34.462 4.113-13.491 3.886-23.084 8.467-30.177 13.076-7.718 5.015-25.795 22.217-30.271 30.509-11.132 20.627-10.655 36.04-11.03 47.618-.391 11.96 3.628 31.63 5.015 38.844 1.246 6.52 2 14.038 2 14.038s-6.296 4.141-7.207 7.582c-1.309 4.953 4.628 13.511 6.175 20.069 1.309 5.546 2.383 10.831 3.547 15.459.766 3.086 4.089 13.913 4.507 18.045.5 5.012 9.257 7.726 9.257 7.726s4.309 15.389 7.007 24.26c2.703 8.87 13.413 19.221 13.413 19.221s2.789 9.069 2.789 16.022c0 6.94-.387 13.507-.387 13.507s-4.633 3.858-6.175 8.878c-1.547 5.016-4.25 8.104-4.25 8.104s-1.925 3.859-2.703 6.566c-.766 2.695-3.469 5.776-3.469 8.874 0 3.082-1.547 5.02-1.547 5.02s-10.831 10.632-19.705 15.264c-8.878 4.633-19.917 9.859-24.158 12.562-4.244 2.703-15.851 5.609-21.258 8.695-5.408 3.089-20.108 9.085-27.055 12.565-6.947 3.483-19.499 6.171-23.742 10.8-4.244 4.632-8.946 8.737-11.583 11.96-5.107 6.265-10.61 19.604-15.049 32.802-3.251 9.711-3.46 15.82-3.46 15.82h223.994-.008.008-.008z"/></svg>